<?xml version="1.0" encoding="UTF-8"?>
<svg id="Camada_1" data-name="Camada 1" xmlns="http://www.w3.org/2000/svg" viewBox="0 0 1500 1500">
  <defs>
    <style>
      .cls-1 {
        fill: #0c5ded;
      }

      .cls-2 {
        fill: #071c47;
      }
    </style>
  </defs>
  <g>
    <g>
      <path class="cls-2" d="M551.79,833.48v11.9h21.4v8.8h-21.4v22.3h-8.8v-51.8h45.1v8.8h-36.3Z"/>
      <path class="cls-2" d="M701.39,868.68c-4.5,6.9-14.2,9.3-21.9,9.3-7.1,0-14.5-1.6-19.8-6.6-5.1-4.9-5.4-10.8-5.4-17.5v-29.2h8.9v29.2c0,7.1.7,8.8,2.3,10.6,3.3,3.7,10,4.6,14.6,4.6s11.1-1.2,14-5.4c1.2-1.7,1.7-3.4,1.7-9.8v-29.2h8.8v29.2c0,8.2-.6,10.8-3.2,14.8Z"/>
      <path class="cls-2" d="M820.49,876.48l-32.4-38.5v38.5h-8.8v-51.8h8.9l32.3,38.4v-38.4h8.8v51.8h-8.8Z"/>
      <path class="cls-2" d="M932.28,876.48h-28.4v-51.8h28.4c17.2,0,26.4,11.5,26.4,25.7,0,16-10.5,26.1-26.4,26.1ZM932.28,833.48h-19.6v34.2h19.6c10.5,0,17.6-6.5,17.6-17.2,0-11.3-7-17-17.6-17Z"/>
      <path class="cls-2" d="M1025.28,876.48v-51.8h8.8v51.8h-8.8Z"/>
      <path class="cls-2" d="M1150.48,876.48l-32.4-38.5v38.5h-8.8v-51.8h8.9l32.3,38.4v-38.4h8.8v51.8h-8.8Z"/>
      <path class="cls-2" d="M1258.98,877.98c-16.1,0-31-10.2-31-27.4s15.4-27.3,31.7-27.3c9.4,0,16.8,2.8,24.2,8.5l-5.1,7.1c-7.1-5-11.1-6.8-19.8-6.8-11,0-22.1,6.4-22.1,18.5s11.2,18.6,22.2,18.6c7.6,0,10.8-1.1,17.3-5v-7.8h-14.9v-8.9h23.8v21.3c-8.3,6-15.8,9.2-26.3,9.2Z"/>
    </g>
    <g>
      <path class="cls-2" d="M537.68,765.02v-142.8h30.8v96.2l-7.6-2,62.2-54.2h37.4l-47.8,41.2c4.4,1.2,8.07,2.97,11,5.3,2.93,2.33,6.2,5.77,9.8,10.3l36,46h-36.4l-28-35.6c-2.8-3.73-6-5.8-9.6-6.2-3.6-.4-7.27,1.07-11,4.4l-21.8,18.6,5.8-19v37.8h-30.8Z"/>
      <path class="cls-2" d="M712.88,767.82c-13.33,0-23.77-2.73-31.3-8.2-7.53-5.47-11.3-13-11.3-22.6,0-6,1.53-11.13,4.6-15.4,3.07-4.27,7.67-7.77,13.8-10.5,6.13-2.73,13.73-4.5,22.8-5.3l41.6-4.6c3.33-.27,5.8-1.07,7.4-2.4,1.6-1.33,2.4-3.13,2.4-5.4v-.2c0-2.93-1.13-5.4-3.4-7.4-2.27-2-5.43-3.53-9.5-4.6-4.07-1.07-8.97-1.6-14.7-1.6-8.53,0-15.27,1.03-20.2,3.1-4.93,2.07-7.93,5.1-9,9.1h-30.8c1.2-6.93,4.3-12.8,9.3-17.6,5-4.8,11.83-8.47,20.5-11,8.67-2.53,18.93-3.8,30.8-3.8,12.93,0,23.67,1.4,32.2,4.2,8.53,2.8,14.93,7.03,19.2,12.7,4.27,5.67,6.4,12.77,6.4,21.3v67.4h-29.4v-31l3.2,3.8c-3.07,6.53-7.13,12.03-12.2,16.5-5.07,4.47-11.13,7.83-18.2,10.1-7.07,2.27-15.13,3.4-24.2,3.4ZM723.68,746.82c5.47,0,10.57-.73,15.3-2.2,4.73-1.47,8.9-3.5,12.5-6.1,3.6-2.6,6.4-5.6,8.4-9s3-7.03,3-10.9v-12.6l5,7.2c-2.13,1.2-4.8,2.23-8,3.1-3.2.87-7.47,1.63-12.8,2.3l-31.2,4c-4.67.53-8.13,1.7-10.4,3.5-2.27,1.8-3.4,4.37-3.4,7.7,0,4.13,1.83,7.33,5.5,9.6,3.67,2.27,9.03,3.4,16.1,3.4Z"/>
      <path class="cls-2" d="M812.88,803.02v-140.8h30.8v27l-2.8-5.4c2.8-5.07,6.63-9.43,11.5-13.1,4.87-3.67,10.63-6.47,17.3-8.4,6.67-1.93,14-2.9,22-2.9,10.27,0,19.67,2.07,28.2,6.2,8.53,4.13,15.43,10.2,20.7,18.2,5.27,8,7.9,18,7.9,30,0,7.07-1,13.5-3,19.3-2,5.8-4.77,10.87-8.3,15.2-3.53,4.33-7.67,7.93-12.4,10.8-4.73,2.87-9.9,5.03-15.5,6.5-5.6,1.47-11.47,2.2-17.6,2.2-8,0-15.33-.97-22-2.9-6.67-1.93-12.43-4.77-17.3-8.5-4.87-3.73-8.7-8.07-11.5-13l2.8-5.4v65h-30.8ZM880.68,745.62c4.53,0,8.67-.53,12.4-1.6,3.73-1.07,7.07-2.57,10-4.5,2.93-1.93,5.4-4.23,7.4-6.9,2-2.67,3.53-5.6,4.6-8.8,1.07-3.2,1.6-6.6,1.6-10.2,0-6-1.43-11.4-4.3-16.2-2.87-4.8-6.97-8.63-12.3-11.5-5.33-2.87-11.8-4.3-19.4-4.3-4.53,0-8.73.53-12.6,1.6-3.87,1.07-7.33,2.57-10.4,4.5-3.07,1.93-5.67,4.23-7.8,6.9-2.13,2.67-3.77,5.6-4.9,8.8-1.13,3.2-1.7,6.6-1.7,10.2,0,6,1.53,11.43,4.6,16.3,3.07,4.87,7.4,8.7,13,11.5,5.6,2.8,12.2,4.2,19.8,4.2Z"/>
      <path class="cls-2" d="M964.28,647.82v-25.6h32v25.6h-32ZM964.88,765.02v-102.8h30.8v102.8h-30.8Z"/>
      <path class="cls-2" d="M1008.68,682.82v-20.6h27.2v20.6h-27.2ZM1067.28,765.02c-10.67,0-19.1-2.8-25.3-8.4-6.2-5.6-9.3-13.4-9.3-23.4v-98.8h31v94c0,5.2,1.4,9.13,4.2,11.8,2.8,2.67,6.6,4,11.4,4h20.2v20.8h-32.2ZM1060.48,682.82v-20.6h39v20.6h-39Z"/>
      <path class="cls-2" d="M1153.48,767.82c-13.33,0-23.77-2.73-31.3-8.2-7.53-5.47-11.3-13-11.3-22.6,0-6,1.53-11.13,4.6-15.4,3.07-4.27,7.67-7.77,13.8-10.5,6.13-2.73,13.73-4.5,22.8-5.3l41.6-4.6c3.33-.27,5.8-1.07,7.4-2.4,1.6-1.33,2.4-3.13,2.4-5.4v-.2c0-2.93-1.13-5.4-3.4-7.4-2.27-2-5.43-3.53-9.5-4.6-4.07-1.07-8.97-1.6-14.7-1.6-8.53,0-15.27,1.03-20.2,3.1-4.93,2.07-7.93,5.1-9,9.1h-30.8c1.2-6.93,4.3-12.8,9.3-17.6,5-4.8,11.83-8.47,20.5-11,8.67-2.53,18.93-3.8,30.8-3.8,12.93,0,23.67,1.4,32.2,4.2,8.53,2.8,14.93,7.03,19.2,12.7,4.27,5.67,6.4,12.77,6.4,21.3v67.4h-29.4v-31l3.2,3.8c-3.07,6.53-7.13,12.03-12.2,16.5-5.07,4.47-11.13,7.83-18.2,10.1-7.07,2.27-15.13,3.4-24.2,3.4ZM1164.28,746.82c5.47,0,10.57-.73,15.3-2.2,4.73-1.47,8.9-3.5,12.5-6.1,3.6-2.6,6.4-5.6,8.4-9s3-7.03,3-10.9v-12.6l5,7.2c-2.13,1.2-4.8,2.23-8,3.1-3.2.87-7.47,1.63-12.8,2.3l-31.2,4c-4.67.53-8.13,1.7-10.4,3.5-2.27,1.8-3.4,4.37-3.4,7.7,0,4.13,1.83,7.33,5.5,9.6,3.67,2.27,9.03,3.4,16.1,3.4Z"/>
      <path class="cls-2" d="M1253.47,765.02v-142.8h30.8v142.8h-30.8Z"/>
    </g>
  </g>
  <g>
    <polygon class="cls-2" points="442.23 797.3 442.23 848.52 389.13 848.52 389.13 877.92 471.86 877.92 471.86 797.3 442.23 797.3"/>
    <polygon class="cls-1" points="214.72 622.88 214.72 877.92 369.26 877.92 369.26 848.52 244.36 848.52 244.36 652.27 442.23 652.27 442.23 780.8 471.86 780.8 471.86 622.88 214.72 622.88"/>
    <path class="cls-1" d="M372.53,745.26c-5.06,7.05-16.48,19.19-23.7,26.58l18.91,39.33h43.13l-38.34-65.92Z"/>
    <polygon class="cls-2" points="409.02 691.83 362.43 691.83 325.75 736.93 325.75 691.83 290.72 691.83 290.72 811.18 325.75 811.18 325.75 782.06 409.02 691.83"/>
  </g>
</svg>