<?xml version="1.0" encoding="UTF-8"?>
<svg id="Camada_1" data-name="Camada 1" xmlns="http://www.w3.org/2000/svg" viewBox="0 0 1500 1500">
  <defs>
    <style>
      .cls-1 {
        fill: #0c5ded;
      }

      .cls-2 {
        fill: #071c47;
      }
    </style>
  </defs>
  <polygon class="cls-2" points="961.7 857.41 961.7 979.89 834.74 979.89 834.74 1050.18 1032.57 1050.18 1032.57 857.41 961.7 857.41"/>
  <polygon class="cls-1" points="417.7 440.35 417.7 1050.18 787.23 1050.18 787.23 979.89 488.57 979.89 488.57 510.64 961.7 510.64 961.7 817.96 1032.57 817.96 1032.57 440.35 417.7 440.35"/>
  <path class="cls-1" d="M795.06,732.99c-12.1,16.85-39.4,45.89-56.67,63.56l45.21,94.05h103.14l-91.68-157.61Z"/>
  <polygon class="cls-2" points="882.3 605.23 770.91 605.23 683.19 713.07 683.19 605.23 599.44 605.23 599.44 890.61 683.19 890.61 683.19 820.97 882.3 605.23"/>
</svg>